# xmcd CD database file
#
# Track frame offsets:
#	150
#	15438
#	50233
#	79873
#	104362
#	128150
#	150338
#	175414
#	217671
#
# Disc length: 3121 seconds
#
# Revision: 3
# Processed by: cddbd v1.5.2PL0 Copyright (c) Steve Scherf et al.
# Submitted via: CDex 1.70beta2
#
DISCID=6a0c2f09
DTITLE=Danny Sinoff Quartet - Live at Ellington's, Vol 1
DYEAR=2005
DGENRE=Jazz
TTITLE0=All Of Me
TTITLE1=Straight No Chaser
TTITLE2=Summertime
TTITLE3=Do You Know What It Means To Miss New Orleans
TTITLE4=My Funny Valentine
TTITLE5=It's All Right Withh Me
TTITLE6=I've Got A Crush On You
TTITLE7=Scrapple From The Apple
TTITLE8=Angel Eyes
EXTD=YEAR: 2005
EXTT0=
EXTT1=
EXTT2=
EXTT3=
EXTT4=
EXTT5=
EXTT6=
EXTT7=
EXTT8=
PLAYORDER=
